<?xml version="1.0" encoding="UTF-8"?>
<!DOCTYPE svg PUBLIC "-//W3C//DTD SVG 1.1//EN" "http://www.w3.org/Graphics/SVG/1.1/DTD/svg11.dtd">
<svg xmlns="http://www.w3.org/2000/svg" version="1.1" width="228px" height="120px" style="shape-rendering:geometricPrecision; text-rendering:geometricPrecision; image-rendering:optimizeQuality; fill-rule:evenodd; clip-rule:evenodd" xmlns:xlink="http://www.w3.org/1999/xlink">
<g><path style="opacity:0.689" fill="#f2f2f2" d="M 17.5,29.5 C 30.85,29.1675 44.1833,29.5008 57.5,30.5C 56.6062,33.2874 55.4396,35.9541 54,38.5C 52.2663,39.2489 50.433,39.7489 48.5,40C 43.22,56.1143 38.5533,72.4476 34.5,89C 35.0981,90.3012 36.0981,91.1345 37.5,91.5C 47.0077,89.4341 53.0077,83.7674 55.5,74.5C 58.5719,74.1826 61.5719,74.5159 64.5,75.5C 62.3095,83.2751 59.9761,90.9418 57.5,98.5C 59.5351,100.372 61.7017,102.039 64,103.5C 65.6565,102.516 67.3232,101.516 69,100.5C 67.2286,87.1984 65.2286,73.8651 63,60.5C 61.5186,63.11 60.3519,65.7766 59.5,68.5C 58.0222,68.762 56.6888,68.4287 55.5,67.5C 55.7093,66.914 56.0426,66.414 56.5,66C 55.062,65.7811 53.7287,65.2811 52.5,64.5C 54.0394,59.7147 55.8727,55.0481 58,50.5C 63.2693,45.7548 69.436,44.2548 76.5,46C 78.6238,47.1217 80.4571,48.6217 82,50.5C 86.0549,45.6841 91.2215,44.1841 97.5,46C 99.6166,47.7309 101.117,49.8976 102,52.5C 107.317,45.9117 114.15,43.7451 122.5,46C 124.286,46.7845 125.786,47.9512 127,49.5C 131.861,45.7159 137.361,44.5493 143.5,46C 148.369,48.2515 150.869,52.0848 151,57.5C 158.502,46.6734 168.669,43.0068 181.5,46.5C 187.186,45.9142 192.853,45.2475 198.5,44.5C 195.5,55.8333 192.5,67.1667 189.5,78.5C 191.5,78.5 193.5,78.5 195.5,78.5C 194.459,86.7473 191.126,93.9139 185.5,100C 180.643,102.707 175.643,103.04 170.5,101C 168.513,99.6811 167.346,97.8477 167,95.5C 160.981,102.463 153.815,103.963 145.5,100C 139.106,91.6359 137.772,82.4692 141.5,72.5C 134.694,74.2827 130.194,71.9494 128,65.5C 124.391,75.2596 121.391,85.2596 119,95.5C 118.365,96.9663 117.531,98.2997 116.5,99.5C 110.872,100.495 105.206,100.829 99.5,100.5C 99.5,99.5 99.5,98.5 99.5,97.5C 98.5,97.5 97.5,97.5 96.5,97.5C 98.5195,88.0885 100.853,78.7552 103.5,69.5C 101.876,69.6399 100.71,68.9733 100,67.5C 94.4005,85.5542 84.2338,100.388 69.5,112C 62.5474,116.985 54.8808,118.652 46.5,117C 41.5172,112.586 40.1838,107.419 42.5,101.5C 29.5171,100.501 16.5171,100.168 3.5,100.5C 3.5,99.5 3.5,98.5 3.5,97.5C 2.5,97.5 1.5,97.5 0.5,97.5C 0.833333,95.5 1.16667,93.5 1.5,91.5C 5.35472,92.1546 8.18806,90.8212 10,87.5C 14.4831,71.567 18.6498,55.567 22.5,39.5C 21.5,39.5 20.5,39.5 19.5,39.5C 19.5,38.1667 19.5,36.8333 19.5,35.5C 18.325,35.719 17.325,35.3857 16.5,34.5C 17.3094,32.9291 17.6427,31.2624 17.5,29.5 Z M 170.5,60.5 C 171.043,60.56 171.376,60.8933 171.5,61.5C 169.154,69.2201 166.654,76.8867 164,84.5C 163.411,75.7659 165.577,67.7659 170.5,60.5 Z M 85.5,66.5 C 86.9846,68.1621 88.3179,69.9954 89.5,72C 88.8037,73.8928 87.9704,75.7262 87,77.5C 86.2811,73.8546 85.7811,70.1879 85.5,66.5 Z"/></g>
<g><path style="opacity:1" fill="#1e1f20" d="M 20.5,31.5 C 31.5202,31.1679 42.5202,31.5012 53.5,32.5C 49.4213,32.7466 46.588,34.7466 45,38.5C 40.1099,55.227 35.6099,72.0603 31.5,89C 31.5852,90.1074 31.9186,91.1074 32.5,92C 41.1461,93.6738 48.3127,91.1738 54,84.5C 55.5992,81.6222 57.4325,78.9555 59.5,76.5C 59.8333,77 60.1667,77.5 60.5,78C 58.4536,83.6846 57.1202,89.5179 56.5,95.5C 39.1539,95.8328 21.8205,95.4995 4.5,94.5C 6.987,93.4235 9.32034,92.0902 11.5,90.5C 16.7286,72.7552 21.7286,54.9219 26.5,37C 24.8662,34.6343 22.8662,32.801 20.5,31.5 Z"/></g>
<g><path style="opacity:1" fill="#1f2021" d="M 65.5,47.5 C 68.8499,47.335 72.1832,47.5017 75.5,48C 78.6626,49.4798 80.496,51.9798 81,55.5C 82.3333,65.5 83.6667,75.5 85,85.5C 88.7495,80.5017 91.5829,75.0017 93.5,69C 89.5352,66.0307 86.7019,62.1974 85,57.5C 84.3075,47.4623 88.4741,44.7956 97.5,49.5C 98.8329,55.1865 98.6663,60.8532 97,66.5C 92.2165,81.2398 84.0498,93.7398 72.5,104C 65.0926,109.692 56.7593,112.358 47.5,112C 43.5,108 43.5,104 47.5,100C 53.9803,98.9891 59.147,101.156 63,106.5C 66.6714,105.498 69.6714,103.498 72,100.5C 70.3258,85.1171 67.9925,69.7838 65,54.5C 64.6924,53.6919 64.1924,53.0253 63.5,52.5C 61.2315,56.0383 59.2315,59.705 57.5,63.5C 56.9288,56.6421 59.5955,51.3087 65.5,47.5 Z M 85.5,66.5 C 85.7811,70.1879 86.2811,73.8546 87,77.5C 87.9704,75.7262 88.8037,73.8928 89.5,72C 88.3179,69.9954 86.9846,68.1621 85.5,66.5 Z"/></g>
<g><path style="opacity:1" fill="#1e1f20" d="M 111.5,47.5 C 115.637,47.1463 119.637,47.6463 123.5,49C 124.863,50.9449 125.697,53.1116 126,55.5C 129.372,48.5671 134.872,46.0671 142.5,48C 149.034,53.7542 149.034,59.7542 142.5,66C 132.716,69.2195 128.882,65.7195 131,55.5C 132.251,52.6193 134.417,50.786 137.5,50C 134.904,49.542 132.737,50.3754 131,52.5C 127.889,56.3869 125.556,60.7202 124,65.5C 120.923,75.3955 118.423,85.3955 116.5,95.5C 110.833,95.5 105.167,95.5 99.5,95.5C 102.855,82.0802 106.522,68.7469 110.5,55.5C 110.167,54.5 109.833,53.5 109.5,52.5C 106.496,55.1661 104.496,58.4994 103.5,62.5C 102.641,63.7742 101.974,63.6075 101.5,62C 102.795,55.5187 106.128,50.6854 111.5,47.5 Z"/></g>
<g><path style="opacity:1" fill="#1e1f20" d="M 165.5,47.5 C 168.85,47.335 172.183,47.5017 175.5,48C 176,48.5 176.5,49 177,49.5C 182.741,48.4086 188.574,47.7419 194.5,47.5C 190.498,61.8394 186.498,76.1728 182.5,90.5C 184.39,90.7035 185.89,90.0368 187,88.5C 188.341,85.978 189.174,83.3113 189.5,80.5C 190.552,80.3505 191.552,80.5172 192.5,81C 191.148,87.3845 187.815,92.3845 182.5,96C 178.406,96.7673 174.406,96.434 170.5,95C 168.683,93.2002 167.516,91.0336 167,88.5C 161.279,97.114 153.946,98.7807 145,93.5C 141.366,84.5528 142.033,75.8862 147,67.5C 151.647,59.3559 157.814,52.6893 165.5,47.5 Z M 170.5,60.5 C 165.577,67.7659 163.411,75.7659 164,84.5C 166.654,76.8867 169.154,69.2201 171.5,61.5C 171.376,60.8933 171.043,60.56 170.5,60.5 Z"/></g>
<g><path style="opacity:0.609" fill="#f3f3f3" d="M 172.5,52.5 C 173.833,52.5 175.167,52.5 176.5,52.5C 173.652,63.2212 170.486,73.8878 167,84.5C 165.809,87.5341 163.642,89.2007 160.5,89.5C 159.707,75.5462 163.707,63.2129 172.5,52.5 Z M 170.5,60.5 C 165.577,67.7659 163.411,75.7659 164,84.5C 166.654,76.8867 169.154,69.2201 171.5,61.5C 171.376,60.8933 171.043,60.56 170.5,60.5 Z"/></g>
</svg>
